<?xml version="1.0" encoding="UTF-8"?>
<!DOCTYPE svg PUBLIC "-//W3C//DTD SVG 1.1//EN" "http://www.w3.org/Graphics/SVG/1.1/DTD/svg11.dtd">
<!-- Creator: CorelDRAW 2020 (64 Bit) -->
<svg xmlns="http://www.w3.org/2000/svg" xml:space="preserve" width="20.1786mm" height="20.1786mm" version="1.1" style="shape-rendering:geometricPrecision; text-rendering:geometricPrecision; image-rendering:optimizeQuality; fill-rule:evenodd; clip-rule:evenodd"
viewBox="0 0 2017.86 2017.86"
 xmlns:xlink="http://www.w3.org/1999/xlink"
 xmlns:xodm="http://www.corel.com/coreldraw/odm/2003">
 <defs>
  <style type="text/css">
   <![CDATA[
    .fil0 {fill:#FEFEFE}
   ]]>
  </style>
 </defs>
 <g id="Camada_x0020_1">
  <metadata id="CorelCorpID_0Corel-Layer"/>
  <path class="fil0" d="M1484.22 1717.58c-32.2,-137.7 169.97,-165.99 192.67,-47.51 26.04,135.78 -166.77,158.28 -192.67,47.51zm-782.61 -6.88c-23.4,-135.2 180.9,-162.38 195.86,-33.82 15.42,132.45 -174.8,155.59 -195.86,33.82zm-24.64 -521.3c-153.32,0 -123.98,-126.66 -123.98,-257.38 0,-124.45 0,-248.89 0.08,-373.92l1175.74 163.05 0.8 348.67c0,80.37 -41.85,119.58 -118.91,119.58l-933.73 0zm62.02 97.86l640.86 0c123.81,0 292.92,23.29 375.81,-48.22 95.8,-82.65 71.72,-197.94 71.72,-348.37 0,-286.71 31.5,-250.38 -150.95,-276.09 -370.69,-52.23 -753.48,-98.47 -1119.89,-154.77 -28.47,-135.13 47.55,-185.79 -64.9,-231.31 -67.45,-27.31 -137.6,-56.5 -204.22,-85.42 -36.17,-15.71 -82.25,-28.78 -95.94,14.31 -16.28,51.26 24.26,61.29 60.2,76.64 68.9,29.43 134.96,55.97 203.26,85.97 3.75,239.69 0.29,482.25 0.29,722.26 0,111.76 -8.13,257.71 0.96,365.34 13.09,155.01 146.61,171 169.83,185.94 -27.53,74.8 -40.14,128.83 5.79,203.62 69.93,113.88 247.87,132.07 332.76,1.16 47.97,-73.97 33.87,-127 6.9,-205.84l435.74 0.59c-30.77,100.49 -39.13,165.37 31.14,238.29 49.6,51.46 155.05,78.3 238.92,32.13 164.9,-90.77 112.68,-343.67 -70.19,-366.64 -62.21,-7.81 -541.73,-2.1 -647.58,-2.1 -402.88,0 -406.51,46.64 -406.51,-233.23 80.61,29.52 93.48,25.77 186,25.74z"/>
  <path class="fil0" d="M701.61 1710.7c21.06,121.77 211.28,98.63 195.86,-33.82 -14.96,-128.56 -219.26,-101.38 -195.86,33.82z"/>
  <path class="fil0" d="M1484.22 1717.58c25.9,110.77 218.71,88.27 192.67,-47.51 -22.7,-118.48 -224.87,-90.19 -192.67,47.51z"/>
 </g>
</svg>
