<?xml version="1.0" encoding="UTF-8"?>
<!DOCTYPE svg PUBLIC "-//W3C//DTD SVG 1.1//EN" "http://www.w3.org/Graphics/SVG/1.1/DTD/svg11.dtd">
<!-- Creator: CorelDRAW 2020 (64 Bit) -->
<svg xmlns="http://www.w3.org/2000/svg" xml:space="preserve" width="20.1786mm" height="20.1786mm" version="1.1" style="shape-rendering:geometricPrecision; text-rendering:geometricPrecision; image-rendering:optimizeQuality; fill-rule:evenodd; clip-rule:evenodd"
viewBox="0 0 2017.86 2017.86"
 xmlns:xlink="http://www.w3.org/1999/xlink"
 xmlns:xodm="http://www.corel.com/coreldraw/odm/2003">
 <defs>
  <style type="text/css">
   <![CDATA[
    .fil0 {fill:#FEFEFE}
   ]]>
  </style>
 </defs>
 <g id="Camada_x0020_1">
  <metadata id="CorelCorpID_0Corel-Layer"/>
  <path class="fil0" d="M463.94 1428.45c14.91,-43.12 19.84,-43.17 4.73,-64.31 -110.84,-155.17 -144.13,-373.48 -86.4,-560.02 13.61,-43.95 31.37,-86.13 52.56,-122.92 110.84,-192.49 296.4,-323.29 529.51,-341.35 110.9,-8.6 211.59,10.44 303.11,46.74 76.13,30.21 178.43,97.03 231.88,160.27 7.41,8.78 14.38,13.6 21.58,22.16 106.19,126.21 163.8,279.81 157.73,453.31 -8.3,237.68 -138.65,425.39 -331.9,542.47 -121.48,73.59 -283.11,102.13 -428.75,80.81 -69.12,-10.12 -139.86,-32.97 -200.13,-63.38 -83.48,-42.12 -41.62,-45.35 -123,-19.79 -34.36,10.78 -183.66,60.55 -197.12,60.87l66.2 -194.86zm-265.02 385.44l0 5.05 5.25 0c17.63,-11.36 94.38,-31.58 120.95,-40.02 40.68,-12.92 81,-25.88 121.28,-38.66l183.49 -58.21c13.68,-1.8 40.57,16.6 55.69,23.44 244.36,110.73 532.9,93.6 762.02,-55.53 69.73,-45.39 117.08,-90.25 172.24,-150.83 11.38,-12.51 23.58,-29.88 34.25,-44.24 11.85,-15.92 21.19,-30.42 33.14,-48.31 53.24,-79.77 93.41,-195.55 108.45,-293.11 2.89,-18.73 3.56,-58.03 9.12,-72.09l0 -91.61c-3.86,-9.92 -7.76,-65.18 -10.81,-82.96 -4.59,-26.73 -9.76,-52.22 -16.77,-77.16 -13.46,-47.95 -30.86,-93.21 -50.69,-134.48 -46.85,-97.47 -131.48,-202.83 -205.78,-261.53 -17.71,-13.98 -34.12,-26.28 -53.77,-40.33 -92.24,-65.93 -217.65,-114.98 -332.45,-131.44 -19.22,-2.76 -68.27,-5.01 -81.05,-8.81l-85.98 0c-2.5,1.01 -104.63,14.37 -140.37,22.79 -42.14,9.94 -85.59,24.78 -122.42,40.76 -121.98,52.91 -200.46,114.44 -281.7,204.6 -24.91,27.64 -48.02,56.73 -69.23,90.59 -154.2,246.14 -164.8,508.54 -45.28,767.51 31.29,67.8 40.55,34.38 14.41,114.3 -14.04,42.9 -114.5,345.21 -123.99,360.28z"/>
  <path class="fil0" d="M732.93 642.16c-24.91,7.39 -42.17,26.8 -57.53,47.36 -55.49,74.24 -52.96,161.24 -16.75,243.19 32.39,73.34 79.23,124.8 126.24,184.19 16.4,20.73 34.47,37.13 51.9,54.72 70.7,71.41 137.63,114.44 258.58,158.62 53.84,19.67 107.54,41.1 171.24,28.87 54.44,-10.45 110.16,-44.99 130.04,-80.14 11.1,-19.64 20.68,-57.6 20.43,-84.37 -0.29,-29.49 -13.89,-29.61 -55.08,-49.31 -163.59,-78.25 -135.75,-75.05 -194.22,-0.98 -21.24,26.91 -34.82,47.11 -60.58,39.35 -89.94,-27.11 -181.95,-107.47 -237.09,-180.14 -66.45,-87.58 -32.93,-71.39 6.56,-128.44 32.78,-47.35 16.67,-56.82 -22.89,-150.11 -28.29,-66.72 -24.8,-84.47 -71.37,-85.56 -20.51,-0.47 -30.3,-2.95 -49.48,2.75z"/>
 </g>
</svg>
