<?xml version="1.0" encoding="UTF-8"?>
<!DOCTYPE svg PUBLIC "-//W3C//DTD SVG 1.1//EN" "http://www.w3.org/Graphics/SVG/1.1/DTD/svg11.dtd">
<!-- Creator: CorelDRAW 2020 (64 Bit) -->
<svg xmlns="http://www.w3.org/2000/svg" xml:space="preserve" width="27.94mm" height="7.4506mm" version="1.1" style="shape-rendering:geometricPrecision; text-rendering:geometricPrecision; image-rendering:optimizeQuality; fill-rule:evenodd; clip-rule:evenodd"
viewBox="0 0 2794 745.06"
 xmlns:xlink="http://www.w3.org/1999/xlink"
 xmlns:xodm="http://www.corel.com/coreldraw/odm/2003">
 <defs>
  <style type="text/css">
   <![CDATA[
    .fil13 {fill:#6F02D6}
    .fil8 {fill:#7104DA}
    .fil11 {fill:#7D0BE7}
    .fil0 {fill:#820EEF}
    .fil4 {fill:#8812F7}
    .fil12 {fill:#8B14FB}
    .fil7 {fill:#8C15FD}
    .fil10 {fill:#D6D6D6}
    .fil15 {fill:#D8D8D8}
    .fil3 {fill:#D9D9D9}
    .fil16 {fill:#DBDBDB}
    .fil5 {fill:gainsboro}
    .fil14 {fill:#E8E8E8}
    .fil1 {fill:whitesmoke}
    .fil9 {fill:#F7F7F7}
    .fil2 {fill:#F8F8F8}
    .fil6 {fill:#FCFCFC}
   ]]>
  </style>
 </defs>
 <g id="Camada_x0020_1">
  <metadata id="CorelCorpID_0Corel-Layer"/>
  <g id="_2910284973872">
   <path class="fil0" d="M438.03 605.81c-11.55,5.3 -119.75,2.18 -128.35,-21.39 -9.42,-25.81 -2.2,-191.7 -7.13,-192.52 -42.78,-7.11 -64.18,0 -80.82,1.19 0.24,51.34 -4.6,142.53 2.77,188.89 18.86,118.78 156.17,100.98 274.31,101.04 103.77,0.03 2031.65,17.84 2061.96,-11.06 18.85,-17.96 16.83,-49.66 -2.63,-63.59 -49.46,-35.4 -2017.39,31.68 -2120.11,-2.56z"/>
   <path class="fil1" d="M919.32 319.04l-0.11 -104.74c47.45,0.04 46.53,-3.47 72.9,22.14 21.38,28.39 12.82,96.6 12.95,145.81l65.34 0c2.37,36.98 3.55,73.98 5.75,110.82 2.78,46.54 14.44,51.05 14.44,105.21l112.41 1.25 0.49 -72 -27.79 0.5 -0.52 -119.29 27.35 0.35 0 -83.26c-34.57,0.48 -17.23,3.93 -27.85,-11.08l0 -101.01 115.33 1.25 -17.25 -83.5 -189.35 -2.2 -5.94 57.32c-26.95,-26.16 -49.42,-51.13 -101.36,-56.27l-132.86 0.93c-22.97,7.65 -2.8,-8.84 -12.69,8.08l3.42 262.56 75.04 0 10.3 -82.87z"/>
   <path class="fil2" d="M2149.68 218.27c60.86,-15.35 75.03,5.35 75.26,60.86l0.03 7.13c0.22,55.19 -20.7,67.86 -75.98,54.63l0.69 -122.62zm-95.63 139.24l12.25 41.79c30.73,0 45.72,7.49 86.55,7.29l100.94 6.95c2.88,-32.95 1.84,-5.4 12.12,-18.53 55.87,-24.43 62.58,-101.43 49.27,-180.72l56.15 1.44 0.33 225.55 94.95 0.21 0.51 -227.26c20.81,-0.29 60.34,4.92 71.08,-6.18 1.05,-1.08 25,-70.11 -15.31,-77.03 -1.99,-0.33 -4.05,-0.76 -6.33,-1.04l-213.78 -0.44c-57.82,-0.03 -203.52,-11.6 -244.72,5.57 -15.84,48.95 -2.2,162.41 -4.01,222.4z"/>
   <path class="fil3" d="M1915.71 357.51l-18.65 13.5 -53.74 -36.35 -19.12 87.41c10.93,125.08 -21.78,90.08 -35.66,180.99l91.53 -4.76 7.46 -57.01 79.55 0.87 8.37 56.89 173.28 -1.56 1.35 -170.88c42.53,-7.52 38.36,27.21 50.86,68.41 10.86,35.84 20.75,68.59 29.54,103.52l93.92 0.36 -58.49 -203.89c-10.28,13.13 -9.24,-14.42 -12.12,18.53l-100.94 -6.95c-40.83,0.2 -55.82,-7.29 -86.55,-7.29l-12.25 -41.79 -1.48 154.13c-7.76,-33.33 -20.3,-123.99 -38.19,-143.75l-3.94 13.56c-1.4,-1.28 -3.22,-3.04 -4.12,-3.9l-30.83 -27.42c-1.11,-0.79 -2.9,-1.94 -4.03,-2.7 -8.43,-5.7 -14.42,-8.51 -20.76,-13.89l-18.11 -18.76 21.34 153 -53.45 -0.09 15.23 -110.18z"/>
   <path class="fil4" d="M1710.14 426.42c29.68,1.21 80.3,9.4 104.65,-4.35 -7.16,-146.88 -322.15,-126.04 -263.45,-245.02 10.13,-20.51 39.57,-28.48 61.64,-14.89 21.37,13.14 15.85,36.52 33.81,60.28 30.72,-3.38 69.63,-14.75 89.95,-30.04 -35.68,-196.12 -251.55,-155.43 -287.3,-31.65 -50.11,173.49 159.43,206.12 260.7,265.67z"/>
   <path class="fil5" d="M823.42 597.41c45.62,3.72 92.84,1.32 138.99,1.74 58.84,0.54 88.81,-4.44 104.69,-46.89l18.16 36.22c0.75,1.5 2.06,3.8 2.66,4.98 0.59,1.15 1.37,3.52 2.67,4.82 0,-54.16 -11.66,-58.67 -14.44,-105.21 -2.2,-36.84 -3.38,-73.84 -5.75,-110.82l-65.34 0c-0.13,-49.21 8.43,-117.42 -12.95,-145.81 2.84,54.12 11.19,235.35 -5.78,272.66 -22.31,24.22 -32.34,18.42 -67.32,18.53l0.31 -208.59 -10.3 82.87 -75.04 0 -3.42 -262.56c-28.87,32.69 -7.25,366.38 -7.14,458.06z"/>
   <path class="fil6" d="M516.01 336.88l1.74 13.75 88.99 -2.36c40.95,-62.67 32.26,-154.39 115.01,-121.94 15.2,63.86 -17.63,60.31 -20.05,111.8 5.56,19.83 1.52,11.92 31.45,13.05 17.26,0.65 42,-0.91 59.77,-1.57 12.75,-22 16.11,-25.57 16.75,-49.83 2.13,-18.94 2.51,-63.64 -0.42,-82.52 -7.59,-65.68 -117.18,-110.74 -189.65,-74.05 -38.7,19.59 -44.3,41.03 -63.59,86.47 -13.03,30.73 -39.33,75.86 -40,107.2z"/>
   <path class="fil7" d="M230.61 217.2c-0.58,32.1 -5.44,56.83 -6.49,82.01 -1.83,43.63 -6.27,84.66 -2.56,119.4l84.76 0.59 0.66 -161.9c10.19,-42.23 -2.07,-9.07 13.04,-27.99 66.84,-56.15 65.44,-3.2 74.53,61.33 46.61,9.73 78.36,3.23 84.56,-5.54 53,-195.83 -249.41,-208.15 -248.5,-67.9z"/>
   <path class="fil8" d="M1710.14 426.42c15.25,46.22 26.8,87.99 -41.96,88.98 -45.45,-23.48 -22.63,-32.93 -49.91,-65.9 -30.87,3.83 -70.01,15.01 -89.88,30.63 9.63,56.06 24.49,77.2 57.73,109.65 1.27,1.25 2.94,2.92 4.11,4.08 1.2,1.2 3.16,3.33 4.15,4.33 1.01,1.02 2.92,2.85 4.18,4.45 28.1,-9.02 59.93,-7.01 91.01,-6.53 46.35,0.72 57.86,15.54 98.97,6.95 13.88,-90.91 46.59,-55.91 35.66,-180.99l-9.41 0c-24.35,13.75 -74.97,5.56 -104.65,4.35z"/>
   <path class="fil9" d="M1843.32 334.66l53.74 36.35 18.65 -13.5 12.85 -69.47 4.03 26.74 18.11 18.76c6.34,5.38 12.33,8.19 20.76,13.89 1.13,0.76 2.92,1.91 4.03,2.7l30.83 27.42c0.9,0.86 2.72,2.62 4.12,3.9l3.94 -13.56c2.33,-39.76 -33.17,-201.64 -47.2,-237.04l-79.18 -1.39c-16.04,40.03 -35.93,153.99 -44.68,205.2z"/>
   <path class="fil10" d="M536.37 597.6l125.41 0.3c39.94,-29.31 54,-63.16 75.48,-118.6 -28.6,-0.46 -74.22,7.94 -93.43,-9.31l-13.47 18.93c-33.92,55.34 -81.18,51.42 -74.66,-24.57l-42.62 15.42c-11.27,0.61 -30.35,-0.82 -42.41,-0.86l-4.23 -25.33c-20.47,21.2 -6.23,63.43 6.37,86.31 19.54,35.48 34.86,36.05 63.56,57.71z"/>
   <path class="fil11" d="M1299.27 229.31l49.04 206.55c17.94,15.77 13.16,-21.04 13.27,13.92 27.34,-6.44 72.14,-12.37 95.73,-21.36 -10.47,-44.18 -34.06,-186.03 -55.97,-210.89 -22.51,15.46 -73.99,25.67 -102.07,11.78z"/>
   <path class="fil12" d="M1272.76 131.49l17.25 83.5 9.26 14.32c28.08,13.89 79.56,3.68 102.07,-11.78 2.06,-48.31 -20.64,-113.86 -32.66,-158.98l-102.58 18.3 6.66 54.64z"/>
   <path class="fil13" d="M1348.31 435.86l36.45 167.15c41.75,-10.04 63.81,2.4 92.84,-0.06 25.18,-33.56 -2.66,-107.41 -20.29,-174.53 -23.59,8.99 -68.39,14.92 -95.73,21.36 -0.11,-34.96 4.67,1.85 -13.27,-13.92z"/>
   <polygon class="fil10" points="2372.05,597.98 2466.29,599.34 2466.61,441.49 2371.66,441.28 "/>
   <path class="fil14" d="M643.83 469.99c19.21,17.25 64.83,8.85 93.43,9.31l55.66 -129.69c-17.77,0.66 -42.51,2.22 -59.77,1.57 -29.93,-1.13 -25.89,6.78 -31.45,-13.05 -19.87,16.07 -57.82,105.44 -57.87,131.86z"/>
   <path class="fil14" d="M466.44 453.58l4.23 25.33c12.06,0.04 31.14,1.47 42.41,0.86l42.62 -15.42 51.04 -116.08 -88.99 2.36 -1.74 -13.75c-12.78,12.24 -5.19,1.63 -16.37,21.8 -5.5,9.92 -8.29,19.11 -12.82,29.83 -11.8,27.96 -19.81,34.85 -20.38,65.07z"/>
   <path class="fil15" d="M1203 599.53l113.69 -1.06 -2.55 -63.62c-1.78,-0.94 -4.19,-1.75 -5.63,-2.17 -25.62,-7.37 -24.64,-6.88 -105.02,-5.15l-0.49 72z"/>
   <polygon class="fil16" points="1202.53,409.09 1288.07,407.5 1289.51,330.15 1202.53,325.83 "/>
  </g>
 </g>
</svg>
